<?xml version="1.0" encoding="UTF-8"?>
<svg version="1.1" xmlns="http://www.w3.org/2000/svg" width="220" height="386">
<path d="M0 0 C0.01030746 1.00589172 0.02061493 2.01178345 0.03123474 3.04815674 C0.12895833 12.52416789 0.2316915 22.00011323 0.33933926 31.476017 C0.39452171 36.347758 0.44793427 41.21950505 0.49731445 46.09130859 C0.54502694 50.79217486 0.5973723 55.49296873 0.65294075 60.19374847 C0.67333309 61.987884 0.6920513 63.78203936 0.70907402 65.57621002 C0.73318711 68.08766347 0.76323222 70.59898072 0.79467773 73.11035156 C0.80331093 74.22489464 0.80331093 74.22489464 0.81211853 75.36195374 C0.86120301 78.80703308 1.1569544 81.62781758 2 85 C18.5 85 35 85 52 85 C54.12984399 80.74031202 54.30544476 77.72048056 54.31884766 73.11035156 C54.32889328 72.31972824 54.3389389 71.52910492 54.34928894 70.71452332 C54.38012926 68.10656446 54.39715836 65.49870832 54.4140625 62.890625 C54.43277347 61.08029293 54.45234683 59.26996958 54.4727478 57.45965576 C54.52408249 52.69876245 54.56370108 47.93784086 54.60089111 43.17681885 C54.64092235 38.31702674 54.69201872 33.45735241 54.7421875 28.59765625 C54.83896263 19.06518689 54.92336238 9.53265104 55 0 C56.4275791 0.4627191 57.85403964 0.92888995 59.2800293 1.39648438 C60.07450974 1.65570679 60.86899017 1.9149292 61.68754578 2.18200684 C72.94143485 6.16288751 81.75150757 13.65287089 90 22 C90.99966797 22.98419922 90.99966797 22.98419922 92.01953125 23.98828125 C108.3183316 41.17008658 112.67761271 63.75940912 112.3046875 86.5625 C111.52599806 108.7004478 100.37765142 128.18864799 84.86224365 143.55182934 C81.9534995 146.0397734 79.15011724 147.50336868 75.75878906 149.24494934 C71.93403595 151.78037084 70.2869258 153.07930443 68.90905762 157.50064659 C68.35332646 161.95955573 68.49418507 166.41122594 68.609375 170.89331055 C68.60944591 172.61050165 68.60417251 174.3277 68.59397888 176.04486084 C68.58091842 180.69263965 68.64088171 185.33695782 68.71306992 189.98408484 C68.77500052 194.8517121 68.76565082 199.71916796 68.76293945 204.58711243 C68.76786622 213.80382239 68.83037068 223.019123 68.91655636 232.23539716 C69.06910009 248.7479457 69.12393946 265.26098122 69.15734291 281.77415305 C69.17135073 287.5686403 69.21063244 293.3622591 69.27104855 299.156443 C69.30551308 302.75778172 69.32418305 306.35908953 69.3393116 309.96055603 C69.34995964 311.6307454 69.36758807 313.300907 69.39269829 314.97094154 C69.42621688 317.25056807 69.43514616 319.52904268 69.43823242 321.80888367 C69.45013107 323.08439433 69.46202972 324.35990499 69.47428894 325.6740675 C68.9154191 329.59312021 67.7603433 331.21933223 65 334 C62.1484728 335.4257636 59.7062093 335.15098562 56.51831055 335.17700195 C55.85305359 335.18357315 55.18779663 335.19014435 54.50238037 335.19691467 C52.29715871 335.21665161 50.09200518 335.22831138 47.88671875 335.23828125 C46.7569609 335.24439454 46.7569609 335.24439454 45.60437965 335.25063133 C41.61752216 335.2714943 37.63069911 335.2857947 33.64379883 335.29516602 C29.52778219 335.30622785 25.41230657 335.34062383 21.29648113 335.38033772 C18.12999982 335.40649687 14.96364751 335.41485721 11.79706764 335.41844749 C10.28002076 335.42331575 8.76297973 335.43493667 7.24603844 335.45348549 C5.12021547 335.4778626 2.9957933 335.47691555 0.86987305 335.4699707 C-0.94309013 335.47877007 -0.94309013 335.47877007 -2.79267883 335.48774719 C-6.62354566 334.90517549 -8.26350042 333.6883847 -11 331 C-12.47716488 328.04567025 -12.12261402 325.41440129 -12.12025452 322.11581421 C-12.12110894 321.3994837 -12.12196337 320.68315318 -12.12284368 319.94511569 C-12.12449732 317.53288411 -12.11897901 315.12072132 -12.11352539 312.70849609 C-12.11324347 310.9840851 -12.11340135 309.25967399 -12.1139679 307.53526306 C-12.11425567 302.84337192 -12.10836213 298.15150617 -12.10139394 293.45962095 C-12.09515711 288.56020962 -12.09455634 283.66079775 -12.09336853 278.76138306 C-12.09025619 269.478919 -12.0820441 260.19646667 -12.07201904 250.91400778 C-12.0608549 240.34826317 -12.05534669 229.78251802 -12.05032361 219.21676898 C-12.03986142 197.47783943 -12.02226384 175.73892045 -12 154 C-12.77255127 153.70287109 -13.54510254 153.40574219 -14.34106445 153.09960938 C-31.25462507 146.10496453 -44.09997273 128.37076873 -50.9375 111.91796875 C-58.83952491 90.2164518 -59.04066947 65.89409578 -49.26416016 44.76660156 C-41.56263435 28.97791746 -20.74788921 0 0 0 Z " fill="#FDFDFD" transform="translate(82,25)"/>
<path d="M0 0 C8.25 0 16.5 0 25 0 C25 3.96 25 7.92 25 12 C20.71 12 16.42 12 12 12 C12 48.63 12 85.26 12 123 C8.04 123 4.08 123 0 123 C0 82.41 0 41.82 0 0 Z " fill="#CCCCCC" transform="translate(85,218)"/>
<path d="M0 0 C1.8975 0.763125 3.795 1.52625 5.75 2.3125 C28.59510094 11.10674278 51.24179549 11.68498193 73.875 2.25 C74.82117188 1.82203125 75.76734375 1.3940625 76.7421875 0.953125 C79 0 79 0 81 0 C81 4.95 81 9.9 81 15 C78.02140954 15.79388678 75.04216284 16.58515639 72.0625 17.375 C71.23169922 17.59671875 70.40089844 17.8184375 69.54492188 18.046875 C47.18777087 23.96238577 21.47415405 25.73707702 0 15 C0 10.05 0 5.1 0 0 Z " fill="#CCCCCC" transform="translate(70,179)"/>
</svg>
